<?xml version="1.0" encoding="utf-8"?>
<!-- Generator: Adobe Illustrator 22.0.1, SVG Export Plug-In . SVG Version: 6.00 Build 0)  -->
<svg version="1.1" id="Layer_1" xmlns="http://www.w3.org/2000/svg" xmlns:xlink="http://www.w3.org/1999/xlink" x="0px" y="0px"
	 viewBox="0 0 40 40" style="enable-background:new 0 0 40 40;" xml:space="preserve">
<style type="text/css">
	.st0{fill:#8F3722;}
	.st1{fill:#502927;}
	.st2{fill:#28A648;}
	.st3{fill:#F7E300;}
	.st4{fill:#FF2DB3;}
	.st5{fill:#FFFFFF;}
	.st6{fill:#1DFFFF;}
</style>
<path class="st0" d="M21.9,32.8c0-0.9-0.7-1.6-1.6-1.5l-1.1,0c-0.9,0-1.6,0.7-1.5,1.6l0,7.1l4.2-0.1L21.9,32.8z"/>
<path class="st1" d="M21.9,33.2l0,2c-0.7,0-1.4,0.1-2.1,0.1c-0.7,0-1.4,0-2.1,0l0-2c0.7,0,1.4,0,2.1,0
	C20.5,33.3,21.2,33.3,21.9,33.2"/>
<path class="st2" d="M12.9,14.9c2.2-1.9,4.2-4.5,5.5-7.1c0.2-0.4,0.6-0.6,1-0.6c0.4,0,0.8,0.2,1,0.6c1.4,2.6,3.5,5.1,5.7,7
	c0.3,0.3,0.5,0.7,0.4,1.1s-0.4,0.7-0.8,0.9c-0.1,0-0.2,0.1-0.4,0.1c-0.4,0.1-0.7,0.4-0.8,0.8c-0.1,0.4,0,0.8,0.2,1.1
	c1.3,1.4,2.6,2.7,4,3.9c0.3,0.3,0.5,0.7,0.4,1.1c-0.1,0.4-0.3,0.8-0.7,0.9c-0.2,0.1-0.4,0.1-0.6,0.2c-0.4,0.1-0.7,0.4-0.8,0.8
	c-0.1,0.4,0,0.8,0.3,1.1c1.3,1.4,2.7,2.6,4.1,3.7c0.3,0.3,0.5,0.7,0.4,1.1c-0.1,0.4-0.3,0.8-0.7,0.9c-6.1,2.5-16.7,2.6-22.9,0.3
	c-0.4-0.1-0.7-0.5-0.7-0.9c-0.1-0.4,0.1-0.8,0.4-1.1c1.4-1.1,2.7-2.4,4-3.9c0.3-0.3,0.4-0.7,0.3-1.1c-0.1-0.4-0.4-0.7-0.8-0.8
	c-0.2-0.1-0.4-0.1-0.6-0.2c-0.4-0.1-0.7-0.5-0.8-0.9s0.1-0.8,0.4-1.1c1.4-1.2,2.7-2.5,3.9-4c0.3-0.3,0.3-0.7,0.2-1.1
	c-0.1-0.4-0.4-0.7-0.8-0.8c-0.1,0-0.3-0.1-0.4-0.1c-0.4-0.1-0.7-0.4-0.8-0.9C12.5,15.6,12.6,15.2,12.9,14.9"/>
<polygon class="st3" points="21.4,6.7 19.3,5.5 17.1,6.5 17.6,4.2 15.9,2.4 18.3,2.1 19.5,0 20.5,2.2 22.9,2.7 21.1,4.3 "/>
<path class="st4" d="M19.2,12.6c0.9,0,1.7,0.7,1.7,1.6c0,0.9-0.7,1.7-1.6,1.7c-0.9,0-1.7-0.7-1.7-1.6C17.5,13.4,18.3,12.6,19.2,12.6
	"/>
<path class="st5" d="M15.7,20.3c0.9,0,1.7,0.7,1.7,1.6c0,0.9-0.7,1.7-1.6,1.7c-0.9,0-1.7-0.7-1.7-1.6C14,21.1,14.8,20.3,15.7,20.3"
	/>
<path class="st3" d="M24.2,23c0.9,0,1.7,0.7,1.7,1.6c0,0.9-0.7,1.7-1.6,1.7c-0.9,0-1.7-0.7-1.7-1.6C22.5,23.8,23.3,23,24.2,23"/>
<path class="st6" d="M17,27.9c0.9,0,1.7,0.7,1.7,1.6c0,0.9-0.7,1.7-1.6,1.7c-0.9,0-1.7-0.7-1.7-1.6C15.4,28.7,16.1,27.9,17,27.9"/>
</svg>
