<?xml version="1.0" encoding="utf-8"?>
<!-- Generator: Adobe Illustrator 22.0.1, SVG Export Plug-In . SVG Version: 6.00 Build 0)  -->
<svg version="1.1" id="Layer_1" xmlns="http://www.w3.org/2000/svg" xmlns:xlink="http://www.w3.org/1999/xlink" x="0px" y="0px"
	 viewBox="0 0 40 40" style="enable-background:new 0 0 40 40;" xml:space="preserve">
<style type="text/css">
	.st0{opacity:0.5;fill:#5B5B5B;}
	.st1{fill:#8F3722;}
	.st2{fill:#28A648;}
	.st3{fill:#F7E300;}
</style>
<path class="st0" d="M31.3,30.9c-1.4-1.1-2.7-2.3-4-3.6c-0.3-0.3-0.4-0.7-0.3-1.1c0.1-0.4,0.4-0.7,0.7-0.8c0.2-0.1,0.4-0.1,0.6-0.2
	c0.4-0.1,0.7-0.5,0.7-0.9c0.1-0.4-0.1-0.8-0.4-1.1c-1.4-1.1-2.7-2.4-3.9-3.8c-0.3-0.3-0.3-0.7-0.2-1.1c0.1-0.4,0.4-0.7,0.8-0.8
	c0.1,0,0.2-0.1,0.4-0.1c0.4-0.1,0.7-0.4,0.8-0.9c0.1-0.4-0.1-0.8-0.4-1.1c-2.1-1.7-4-4.1-5.4-6.4l1.5,0.9l-0.4-3.2l2.4-2.2l-3.2-0.6
	l-1.3-3L18.2,4L15,4.3l2.2,2.4l-0.7,3.2l2.1-1c0,0,0,0,0,0c-1.3,2.5-3.3,5-5.4,6.9c-0.3,0.3-0.4,0.7-0.3,1.1
	c0.1,0.4,0.4,0.7,0.8,0.8c0.1,0,0.2,0.1,0.4,0.1c0.4,0.1,0.7,0.4,0.8,0.8c0.1,0.4,0.1,0.8-0.2,1.1c-1.2,1.4-2.5,2.7-3.8,3.9
	c-0.3,0.3-0.5,0.7-0.4,1.1c0.1,0.4,0.4,0.7,0.8,0.9c0.2,0.1,0.4,0.1,0.6,0.2c0.4,0.1,0.7,0.4,0.8,0.8c0.1,0.4,0,0.8-0.3,1.1
	c-1.2,1.4-2.6,2.6-3.9,3.8c-0.3,0.3-0.5,0.7-0.4,1.1c0.1,0.4,0.3,0.7,0.7,0.9c2.5,0.9,5.7,1.4,9.1,1.6l0,5.5l4.1-0.1l0-5.4
	c3.4-0.2,6.6-0.8,9.1-1.8c0.4-0.2,0.6-0.5,0.7-0.9C31.8,31.6,31.7,31.2,31.3,30.9z"/>
<path class="st1" d="M22.8,32.3c0-0.8-0.7-1.5-1.5-1.5l-1.1,0c-0.8,0-1.5,0.7-1.5,1.5l0,6.9l4.1-0.1L22.8,32.3z"/>
<path class="st2" d="M14.1,14.9c2.1-1.9,4.1-4.4,5.4-6.9c0.2-0.4,0.6-0.6,1-0.6c0.4,0,0.8,0.2,1,0.6c1.4,2.5,3.4,4.9,5.6,6.8
	c0.3,0.3,0.5,0.7,0.4,1.1c-0.1,0.4-0.4,0.7-0.8,0.9c-0.1,0-0.2,0.1-0.4,0.1c-0.4,0.1-0.7,0.4-0.8,0.8c-0.1,0.4,0,0.8,0.2,1.1
	c1.2,1.4,2.5,2.7,3.9,3.8c0.3,0.3,0.5,0.7,0.4,1.1c-0.1,0.4-0.3,0.7-0.7,0.9c-0.2,0.1-0.4,0.1-0.6,0.2c-0.4,0.1-0.6,0.4-0.7,0.8
	c-0.1,0.4,0,0.8,0.3,1.1c1.3,1.3,2.6,2.6,4,3.6c0.3,0.3,0.5,0.6,0.4,1.1c-0.1,0.4-0.3,0.7-0.7,0.9c-6,2.4-16.3,2.5-22.3,0.3
	c-0.4-0.1-0.7-0.5-0.7-0.9C8.8,31,9,30.6,9.3,30.3c1.3-1.1,2.6-2.4,3.9-3.8c0.3-0.3,0.4-0.7,0.3-1.1c-0.1-0.4-0.4-0.7-0.8-0.8
	c-0.2-0.1-0.4-0.1-0.6-0.2c-0.4-0.1-0.7-0.5-0.8-0.9c-0.1-0.4,0.1-0.8,0.4-1.1c1.3-1.1,2.6-2.4,3.8-3.9c0.3-0.3,0.3-0.7,0.2-1.1
	c-0.1-0.4-0.4-0.6-0.8-0.8c-0.1,0-0.2-0.1-0.4-0.1c-0.4-0.1-0.7-0.4-0.8-0.8C13.6,15.6,13.8,15.2,14.1,14.9"/>
<polygon class="st3" points="23.1,9.2 20.3,7.5 17.4,8.9 18.1,5.8 15.9,3.4 19.1,3.1 20.7,0.2 22,3.2 25.1,3.8 22.7,6 "/>
</svg>
