<?xml version="1.0" encoding="utf-8"?>
<!-- Generator: Adobe Illustrator 22.0.1, SVG Export Plug-In . SVG Version: 6.00 Build 0)  -->
<svg version="1.1" id="Layer_1" xmlns="http://www.w3.org/2000/svg" xmlns:xlink="http://www.w3.org/1999/xlink" x="0px" y="0px"
	 viewBox="0 0 40 40" style="enable-background:new 0 0 40 40;" xml:space="preserve">
<style type="text/css">
	.st0{fill:#8F3722;}
	.st1{fill:#28A648;}
</style>
<path class="st0" d="M22.4,31c0-1.1-0.9-1.9-1.9-1.9l-1.3,0c-1.1,0-1.9,0.9-1.9,1.9l0,8.7l5.1-0.2L22.4,31z"/>
<path class="st1" d="M11.4,9.2c2.7-2.4,5.1-5.5,6.7-8.7c0.2-0.5,0.7-0.8,1.2-0.8c0.5,0,1,0.3,1.3,0.7c1.7,3.1,4.3,6.2,7,8.5
	c0.4,0.3,0.6,0.8,0.5,1.4c-0.1,0.5-0.5,0.9-1,1.1c-0.1,0-0.3,0.1-0.5,0.1c-0.5,0.1-0.8,0.5-1,1c-0.1,0.5,0,1,0.3,1.3
	c1.5,1.7,3.2,3.3,4.9,4.7c0.4,0.3,0.6,0.8,0.5,1.3c-0.1,0.5-0.4,0.9-0.9,1.1c-0.2,0.1-0.5,0.2-0.7,0.2c-0.5,0.2-0.8,0.5-0.9,1
	c-0.1,0.5,0,1,0.4,1.3c1.6,1.7,3.3,3.2,5,4.6c0.4,0.3,0.6,0.8,0.5,1.3c-0.1,0.5-0.4,0.9-0.9,1.1c-7.5,3-20.4,3.2-28,0.4
	c-0.5-0.2-0.8-0.6-0.9-1.1c-0.1-0.5,0.1-1,0.5-1.3c1.7-1.4,3.3-3,4.9-4.7c0.3-0.4,0.5-0.9,0.3-1.3s-0.5-0.8-1-1
	c-0.3-0.1-0.5-0.2-0.7-0.2C8.4,21,8.1,20.7,8,20.1c-0.1-0.5,0.1-1,0.5-1.3c1.7-1.4,3.3-3.1,4.7-4.9c0.3-0.4,0.4-0.9,0.3-1.3
	c-0.1-0.5-0.5-0.8-1-0.9c-0.2,0-0.3-0.1-0.5-0.1c-0.5-0.2-0.9-0.5-1-1C10.9,10,11,9.5,11.4,9.2"/>
</svg>
